<svg clip-rule="evenodd" fill-rule="evenodd" stroke-linejoin="round" stroke-miterlimit="1.41421" viewBox="0 0 442 397" xmlns="http://www.w3.org/2000/svg"><path d="m256.073.109c36.301.126 72.9 4.693 107.03 16.957 16.657 5.986 32.689 13.871 46.868 24.479 3.583 2.681 6.527 6.381 7.105 10.722.196 1.475.182 2.971.05 4.457 0 0 1.852.674 3.739 1.311 5.024 1.703 10.018 3.474 14.981 5.355.808.313.934.381 1.355.604 2.762 1.464 4.45 4.481 4.401 7.785l-.021.69s-15.228 69.851-15.228 69.851c-.026 2.993-1.792 5.8-4.468 7.261l-8.253 4.058c-11.261 36.45-26.25 71.172-46.457 102.916-26.622 41.821-62.289 77.904-103.923 104.892-18.094 11.728-37.41 21.913-56.98 30.488-8.009 3.51-16.854 4.967-25.411 3.729-11.027-1.595-20.869-7.634-30.489-13.713-23.929-15.122-44.914-35.019-60.346-58.71-10.277-15.778-18.155-33.091-23.807-51.033-19.517-6.456-38.759-15.755-52.676-31.582-7.995-9.091-13.441-20.834-13.034-32.969.369-11.013 5.292-21.639 12.548-29.842 10.082-11.396 24.137-18.916 38.167-24.346l.239-.092-8.241-3.658s-3.004-1.598-4.073-4.204c-.171-.415-.176-.436-.229-.588-.62-1.795-.601-3.802.086-5.593l-.158.397 15.433-70.733.879-2.164c2.317-2.552 4.432-3.488 7.301-4.292 7.035-2.037 14.402-4.469 21.776-6.566.575-1.902 1.158-3.798 1.747-5.693 0 0 .997-3.043 2.766-5.217 2.398-2.948 5.823-4.877 9.078-7.03 23.537-15.566 51.027-24.253 78.861-30.093 26.033-5.462 52.627-7.903 79.384-7.834zm-.966 5.999c-35.275.038-70.504 4.378-104.269 14.629-18.175 5.518-36.016 12.852-51.818 23.733-2.039 1.404-4.289 2.632-5.755 4.56-.624.82-1.059 1.762-1.442 2.713l-.043.107c-.937 2.996-1.848 6-2.742 9.009-8.279 2.311-16.508 4.855-24.653 7.371-.093.028-.186.056-.28.083-.328.092-.657.178-.985.268-1.038.29-2.071.691-2.802 1.498l-.285.701-15.428 70.712c-.455 1.142.18 2.303 1.172 2.797l16.7 7.411c-.14 1.406-.274 2.813-.401 4.222l-3.724 1.309c-16.269 5.778-32.535 13.723-43.114 27.348-8.143 10.489-11.165 24.816-6.221 37.58 5 12.912 15.918 22.51 27.219 29.738 10.48 6.703 22.089 11.475 33.936 15.289l.867.276c6.038 20.112 14.991 39.662 27.051 57.015 17.456 25.121 41.677 45.552 68.377 59.931 11.053 5.952 24.211 7.551 35.94 2.666 41.937-17.66 82.35-44.252 115.383-77.947 22.904-23.362 42.336-50.045 57.803-78.866 13.785-25.689 24.506-52.707 33.06-80.861l10.469-5.146c.853-.467 1.375-1.446 1.18-2.403l15.298-70.118c.036-1.155-.677-2.267-1.9-2.739-7.347-2.786-14.759-5.34-22.218-7.73l-.998-.317c.613-4.11 1.594-8.523-.992-11.853-1.168-1.504-2.85-2.563-4.431-3.717-22.87-16.701-50.273-26.417-78.282-32.325-23.205-4.894-46.946-6.86-70.724-6.943-.316-.001-.632-.001-.948-.001zm-100.93 351.639c-5.04-2.309-10.149-9.833-9.06-15.334.802-4.055 2.67-5.633 5.474-5.178 2.804.456 3.952 4.244 4.267 7.353.296 2.929 1.581 3.908 4.239 5.113 2.943 1.333 20.248 8.262 24.305 9.646 3.675 1.253 6.006-.652 7.015-3.686 1.008-3.033 3.178-5.456 6.215-4.804 3.036.652 3.679 5.314 2.942 8.547s-6.716 13.266-19.583 8.793c-12.867-4.472-20.774-8.141-25.814-10.45zm53.474-6.806c.661-.255 1.349-.514 1.854-.689.429 2.828 2.979 5.613 4.819 8.114l-3.252 1.395c.014.017.026.034.039.051-.712.295-1.847.755-3.03 1.232l-3.819 1.638c.019-.043.037-.087.056-.13-.58.232-.946.378-.946.378 1.699-3.554 2.295-8.624 1.656-10.849l.523-.248-.009-.065s.361-.145.885-.351l1.208-.573c.005.032.011.064.016.097zm6.523-6.223c-.449-2.248 2.25-6.045 5.322-6.046 3.071-.001 4.41 1.38 5.057 2.936 1.43 3.436 4.624 4.493 8.498 2.338 3.874-2.156 24.826-13.897 26.768-15.407 1.941-1.509 3.734-5.165 1.874-7.493-1.806-2.258-2.346-4.358-1.436-7.322.734-2.392 4.545-5.116 8.186-1.874 9.589 8.539 3.489 20.873-4.734 25.592s-24.151 13.822-28.271 16.091c-6.714 3.698-19.191 1.578-21.264-8.815zm-26.73-7.41c6.815-2.611 24.976-10.393 28.946-11.904 6.851-2.606 14.292-1.055 17.091 2.283 2.8 3.337 1.13 6.102-1.055 6.979-2.186.876-4.308 1.337-6.768.266s-3.674-1.54-6.879-.212c-3.205 1.327-24.209 9.783-26.854 11.035-4.811 2.279-3.547 3.635-5.341 4.616-1.01.553-3.179 1.339-5.267.369s-2.631-3.904-1.901-6.195c.824-2.584 4.051-5.713 8.028-7.237zm-53.614-38.61c2.66.015 6.503 1.918 9.286 5.03 5.005 5.595 19.087 20.193 21.993 23.457 5.013 5.631 6.482 13.404 4.535 17.37-1.946 3.965-4.052 3.695-6.209 2.634-2.463-1.213-4.036-2.843-3.39-7.452l.001-.129c.017-2.694-.062-4.042-2.467-6.595-2.445-2.593-18.237-19.683-20.396-21.764-3.927-3.786-4.669-2.052-6.254-3.413-.892-.767-2.443-2.565-2.37-4.948s2.525-4.017 4.887-4.178c.115-.008.232-.012.351-.012zm2.527 42.383c.338-4.255 1.732-7.063 3.511-9.526-1.705-1.74-1.432-1.548-3.411-3.648-3.455 1.575-5.892 2.343-11.422.964 8.066 8.694 7.416 8.358 11.322 12.21zm120.877-32.244-13.845.928c-2.029 4.219-3.211 10.18-.111 15.134 1.813 2.897 5.757 1.303 7.293.048 2.157-1.762 3.373-4.02 1.864-6.481-.868-1.415-1.169-5.212 4.799-9.629zm-142.615 6.883c2.808 4.855 10.703 9.202 15.941 7.488 3.862-1.263 5.192-3.331 4.438-6.124-.754-2.792-4.572-3.537-7.635-3.511-2.887.023-3.982-1.171-5.451-3.733-1.625-2.836-10.291-19.614-12.089-23.574-.992-2.186-1.188-3.095-.673-4.744-1.606-1.337-5.138-3.939-7.323-5.809-2.243 3.531-3.354 8.25-.248 14.991 5.782 12.551 10.232 20.162 13.04 25.016zm159.716-6.897c3.009 3.646 4.966 6.966 5.256 9.448 3.996-3.38 24.063-19.496 24.063-19.496-4.297 1.502-20.866 6.464-25.559 6.525-1.438 1.447-2.837 2.812-3.76 3.523zm-178.587-58.321c1.203 1.446 2.499 2.816 3.853 4.097 9.431 8.916 21.439 14.843 33.623 19.619 24.302 9.526 50.143 14.274 76.049 16.447 23.572 1.976 47.372 1.729 70.694-2.036 13.497-2.179 26.898-5.431 39.132-11.453 4.815-2.37 9.638-5.274 13.705-8.992-10.934 22.864-61.769 37.211-121.439 32.811-15.104-1.113-29.479-3.332-42.649-6.419-39.008-9.143-67.447-25.897-72.968-44.074zm21.363 35.405c.106-.437 7.359 4.381 10.238 5.581-.087.812-.41 2.651-1.51 3.663-1.658 1.527-5.359 1.375-7.109-.719-1.751-2.094-2.407-5.279-1.619-8.525zm120.254-1.857h-.345.265zm-97.893-15.777c-11.707-4.293-23.201-9.531-32.611-17.543-.106-.09-.211-.18-.315-.27 0 0-.064-.055-.064-.055l.009.007-.052-.044.01.008-.037-.031-.007-.007-.01-.009-.098-.085.011.01-.029-.025-.012-.011-.023-.02-.088-.078.009.008-.019-.016-.011-.01-.04-.035-.078-.069.002.002-.005-.005-.005-.004c-7.138-6.321-10.875-13.079-10.312-19.863 1.996-24.05 57.274-39.387 123.365-34.229 66.092 5.159 118.13 28.873 116.134 52.924-.355 4.284-2.401 8.291-5.897 11.956l-.01.009-.056.059.012-.012-.017.017.003-.003-.025.026c-.076.079-.152.158-.23.236-7.173 7.322-16.978 11.3-26.717 14.381l-.264.084-.194.06-.265.083c-20.791 6.476-42.855 8.355-64.678 8.331h-.098-.058-.007.005l-.437-.001.302.001h-.172l-.214-.001h-.153l-.298-.002.132.001c-32.319-.12-64.98-4.406-95.436-15.428l-.065-.023-.074-.027-.073-.027.053.019-.373-.135.034.012.219.08-.066-.024-.153-.056-.071-.026-.055-.02-.055-.02-.132-.049-.132-.048zm98.559 15.776-.331.001h.173zm.676-.003-.342.002h.096zm.9-.006-.581.005.022-.001zm-4.478.004h.039l-.184-.001zm-.732-.005h.041l-.198-.002zm5.895-.005-.358.003.284-.002zm-6.629-.003.042.001-.211-.003zm7.29-.005-.337.004.186-.002zm-8.025-.004.043.001-.225-.003zm8.695-.005-.345.005.106-.001zm.802-.013-.49.009.031-.001zm-10.234.008h.044l-.237-.004zm-.738-.013.045.001-.249-.005zm11.74-.009-.373.007.306-.006zm-12.479-.005.045.001-.261-.006zm13.135-.009-.341.007.196-.004zm-13.876-.007.045.001-.272-.006zm14.54-.008-.347.008.116-.003zm.756-.02-.451.012.04-.001zm-16.038.01.045.002-.282-.008zm-.743-.019.044.001-.292-.008zm17.58-.013-.393.011.333-.01zm-18.325-.008.044.001-.302-.009zm18.975-.012-.346.01.209-.006zm-19.72-.011.042.001-.311-.01zm20.378-.011-.349.012.126-.005zm.726-.026-.428.016.05-.002zm-21.852.012.042.002-.32-.012zm-.748-.026.04.001-.328-.012zm23.413-.017-.42.016.367-.014zm-24.163-.012.039.002-.336-.014zm24.807-.014-.349.014.22-.009zm.651-.028-.349.015.135-.006zm-26.209.012.038.002-.345-.015zm26.913-.044-.412.019.059-.003zm-27.665.012.036.002-.352-.016zm28.486-.051-.461.022.415-.02zm-29.239.018.034.001-.359-.016zm29.876-.05-.354.018.232-.012zm-30.631.014.032.002-.365-.018zm31.274-.048-.348.018.144-.007zm-32.029.011.03.002-.372-.019zm32.715-.049-.398.022.067-.004zm-33.472.01.028.002-.378-.021zm34.295-.058-.528.031.49-.029zm-35.053.017.026.002-.385-.022zm35.683-.055-.357.022.244-.015zm-36.442.013.023.001-.391-.023zm37.078-.053-.347.022.153-.01zm-37.839.008.021.001-.397-.024zm38.509-.052-.387.026.076-.005zm-39.27.006.019.001-.405-.025zm-.762-.048.016.001-.413-.027zm41.479-.058-.361.026.256-.019zm-42.243.008.014.001-.423-.029zm42.871-.054-.346.025.161-.011zm-43.635.002.011.001-.437-.031zm44.29-.052-.377.029.085-.006zm-45.056-.001h.008l-.46-.033zm-.766-.056.005.001-.513-.039zm47.259-.057-.364.03.268-.022zm-49.509-.116.714.057c.257.02.514.04.771.059l-.771-.059zm50.129.064-.343.029.169-.014zm.642-.055-.367.032.092-.008zm-51.33-.054.333.027-.492-.04zm-.634-.052.216.017-.47-.039zm53.39-.022-.368.033.281-.025zm-54.024-.032.127.011-.522-.045zm54.636-.026-.34.032.177-.016zm.628-.061-.356.035.099-.01zm-57.16-.081.457.041-.563-.051zm58.575-.061-.372.038.294-.03zm-59.205.003.281.026-.472-.044zm59.807-.067-.335.036.183-.019zm-60.437.007.181.017-.474-.045zm61.054-.073-.347.038.106-.012zm-61.682.013.096.009-.587-.057zm63.083-.169-.377.043.308-.035zm-64.962-.019.368.037-.503-.051zm65.555-.05-.33.038.189-.021zm-66.18-.015.238.025-.461-.049zm66.785-.057-.336.04.111-.013zm-67.408-.009.147.015-.489-.052zm68.131-.078-.47.057.04-.005zm.664-.083-.383.048.323-.04zm-70.659-.044.549.062-.633-.071zm71.243-.03-.325.041.195-.024zm-71.863-.04.308.035-.472-.054zm72.455-.037-.325.042.116-.015zm-73.073-.034.2.023-.459-.054zm73.74-.055-.411.055.047-.006zm-74.358-.018.115.014-.522-.063zm75.063-.077-.39.053.339-.046zm.575-.08-.318.044.199-.027zm-77.484-.067.414.051-.525-.065zm78.065-.015-.315.045.121-.017zm-78.678-.062.26.033-.455-.057zm79.307-.029-.371.054.052-.007zm-79.919-.049.165.021-.464-.059zm80.645-.058-.402.06.36-.053zm-81.256-.02.084.011-.604-.08zm81.821-.065-.31.047.203-.03zm.57-.087-.304.047.125-.019zm.601-.094-.341.054.057-.009zm-84.819.003.338.045-.477-.064zm85.555-.12-.421.068.389-.063zm-86.162.037.22.03-.446-.062zm-.605-.085.132.019-.48-.067zm87.323-.042-.301.049.205-.033zm.558-.093-.292.049.128-.021zm.578-.097-.315.053.061-.01zm-90.269-.026.479.069-.568-.082zm91.011-.101-.465.08.442-.076zm-91.612.013.282.041-.449-.066zm92.157-.108-.29.051.205-.036zm-92.757.019.183.027-.444-.067zm93.304-.117-.279.05.129-.023zm-93.903.026.102.016-.519-.079zm94.462-.127-.293.053.065-.011zm-96.251-.15.372.059-.487-.077zm97.529-.087-.279.052.204-.038zm-98.123-.007.238.038-.434-.069zm98.658-.095-.267.051.131-.025zm-99.251 0 .149.024-.448-.073zm99.793-.105-.273.053.067-.013zm-100.384.009.072.011-.622-.102zm101.648-.261-.265.054.202-.041zm-103.415-.034.305.052-.446-.076zm103.94-.073-.254.052.131-.026zm-104.527-.027.199.034-.425-.073zm105.053-.082-.255.053.07-.014zm-105.638-.019.117.02-.465-.081zm106.275-.115-.371.079.011-.003zm.612-.131-.249.054.196-.043zm-108.636-.064.416.075-.507-.091zm109.149-.048-.239.052.13-.028zm-109.729-.057.255.046-.422-.076zm110.241-.056-.237.053.071-.016zm-110.82-.05.163.03-.421-.078zm111.348-.069-.255.058.014-.003zm-111.926-.038.087.016-.507-.094zm112.63-.122-.231.053.188-.043zm.501-.117-.225.053.129-.03zm-114.856-.087.33.063-.446-.086zm115.355-.03-.221.052.072-.017zm-115.928-.081.214.041-.407-.079zm116.415-.035-.209.05.017-.004zm-116.986-.077.131.026-.425-.084zm117.711-.099-.208.051.175-.043zm.49-.121-.209.052.125-.031zm-119.906-.12.484.097-.552-.111zm120.392-.002-.206.052.073-.019zm-120.957-.114.271.056-.411-.084zm121.42-.004-.18.046.019-.005zm-121.985-.112.177.037-.397-.083zm122.713-.076-.179.047.156-.04zm-123.276-.041.101.021-.441-.093zm123.755-.084-.194.051.121-.032zm.473-.126-.19.051.072-.02zm-125.908-.147.357.076-.448-.096zm126.354.027-.159.043.021-.006zm-126.911-.148.226.049-.389-.085zm127.635-.051-.14.039.125-.034zm-128.191-.071.143.032-.392-.087zm128.658-.059-.177.05.115-.032zm-129.212-.063.072.016-.485-.108zm129.673-.067-.175.05.071-.02zm.432-.124-.143.042.023-.007zm-131.76-.182.287.065-.4-.091zm132.474-.025-.079.023.073-.021zm-133.022-.101.187.043-.374-.087zm133.478-.034-.159.047.108-.031zm-134.025-.093.112.026-.394-.092zm134.473-.041-.16.048.07-.021zm.421-.128-.129.04.025-.008zm-136.527-.218.392.094-.46-.11zm137.655-.131.068-.022-.172.055-.142.044.052-.017.098-.03zm-138.196.001.236.057-.371-.09zm-.54-.131.153.037-.363-.089zm-.538-.133.083.021-.406-.101zm140.266-.054-.011.003.004-.001zm.278-.091-.015.005.008-.003zm.271-.089-.004.001.003-.001zm-142.42-.167.3.076-.388-.099zm-.532-.136.195.05-.35-.09zm-.53-.136.121.031-.355-.092zm144.858-.024-.012.004.004-.001zm.275-.095-.023.008.011-.004zm-145.662-.018.056.014-.447-.117zm145.928-.074-.02.007.012-.004zm-146.981-.203.451.119-.496-.131zm-.524-.14.243.065-.35-.094zm-.522-.14.16.043-.335-.091zm149.358.009-.008.003.002-.001zm.273-.1-.026.009.011-.004zm-150.152-.051.092.025-.353-.096zm150.413-.045-.029.01.016-.005zm.255-.095-.019.007.012-.004zm-152.22-.288.312.087-.377-.105zm-.515-.145.2.056-.326-.092zm154.036-.062-.025.01.009-.003zm-154.548-.083.127.036-.322-.092zm154.805-.017-.034.013.017-.006zm.249-.097-.03.011.018-.007zm-155.565-.032.064.018-.358-.103zm155.81-.065-.014.005.01-.004zm-157.333-.378.246.072-.329-.097zm158.345-.032-.021.009.007-.003zm-158.85-.117.164.048-.307-.091zm159.103.013-.034.014.015-.006zm.244-.101-.036.015.019-.008zm-159.849-.062.099.029-.312-.094zm160.087-.038-.027.011.018-.007zm.236-.1h-.001zm-160.824-.013.039.012-.39-.119zm-.997-.304.325.099-.367-.112zm162.555.001-.01.005.003-.001zm-163.05-.154.2.062-.3-.093zm163.303.044-.032.014.012-.005zm.239-.105-.039.017.019-.008zm-164.036-.093.131.041-.291-.091zm164.268-.01-.036.015.022-.009zm.228-.103-.02.009.015-.006zm-164.989-.041.072.022-.303-.096zm165.938-.393-.026.012.008-.003zm-167.404-.075.244.078-.303-.098zm167.639-.035-.038.018.017-.007zm-168.124-.123.164.053-.279-.09zm168.351.017-.039.018.021-.01zm.221-.105-.031.014.021-.009zm-169.055-.07.103.034-.277-.091zm169.274-.035-.006.003.005-.003zm-169.756-.124.047.015-.299-.099zm170.444-.211-.016.008.004-.002zm-171.402-.109.347.116-.369-.124zm171.635-.007-.034.017.012-.006zm-172.111-.154.197.066-.272-.092zm172.332.044-.039.02.019-.01zm.215-.108-.036.018.022-.011zm-173.021-.098.133.045-.262-.089zm173.233-.01-.022.011.016-.008zm-173.706-.153.077.027-.263-.091zm-.47-.163.023.008-.307-.107zm175.057-.141-.027.014.009-.005zm.217-.115-.037.019.016-.008zm-176.21-.073.233.083-.271-.096zm176.419-.039-.037.019.02-.01zm-14.611-38.263c-.463-.237-1.025-.105-1.339.315-.313.42-.289 1.008.058 1.4 2.335 2.642 3.464 5.363 3.196 8.092-1.457 14.857-43.728 24.383-94.339 21.261-19.68-1.214-37.742-4.163-52.383-8.188-.55-.168-1.135.125-1.34.673-.206.548.038 1.165.559 1.414 16.228 6.281 39.731 11.038 66.151 12.668 50.61 3.122 92.882-6.405 94.338-21.261.56-5.709-4.987-11.379-14.901-16.374zm-162.273 38.137.161.057-.25-.089zm177.088.015-.028.016.019-.011zm.203-.11-.005.003.004-.002zm-177.755-.071.106.038-.246-.089zm178.39-.281-.015.008.004-.002zm-179.591-.156.141.051.11.041-.388-.143zm179.805.035-.031.018.012-.007zm.204-.116-.035.02.017-.01zm.198-.114-.032.019.02-.011zm.195-.112-.017.01.012-.008zm-181.381-.056.113.042-.432-.162zm-.654-.247.217.082-.374-.141zm182.843-.176-.022.013.007-.004zm.199-.121-.031.019.014-.008zm.192-.117-.031.019.017-.011zm.188-.116-.023.014.015-.01zm-185.039-.091.195.076-.362-.142zm185.802-.391-.008.005.002-.001zm.197-.128-.024.016.009-.006zm-187.59-.111.175.07-.353-.142zm187.776-.01-.028.018.014-.009zm.181-.119-.024.015.014-.009zm.177-.118-.009.006.007-.005zm-189.699-.391.158.065-.348-.144zm190.431-.108-.013.009.004-.003zm.182-.127-.022.016.009-.007zm.174-.123-.022.016.012-.009zm.17-.121-.013.009.009-.006zm-192.496-.168.142.06-.345-.147zm-.608-.261.28.121-.384-.166zm193.969-.205-.014.011.005-.004zm.168-.127-.017.013.008-.006zm-195.041-.062.127.056-.344-.151zm195.204-.062-.013.009.008-.006zm-195.801-.202.245.109-.356-.158zm-.888-.398.113.051-.346-.157zm197.502-.041-.003.003.001-.001zm.163-.132-.011.009.005-.004zm-198.251-.094.216.098-.335-.153zm198.408-.035-.011.009.006-.005zm.152-.127-.001.001h.001zm-199.431-.241.1.046-.352-.164zm-.575-.27.191.09-.317-.15zm200.771-.145-.002.002.001-.001zm.151-.134-.006.005.003-.002zm-201.777-.129.088.042-.364-.176zm201.922-.001-.001.001zm-202.486-.272.171.083-.304-.148zm-36.776-3.215.225.788c-42.379-10.993-70.753-30.506-70.062-51.783.521-16.026 17.43-29.939 44.119-39.293l.181.636c-21.051 8.367-33.963 19.691-34.38 32.517-.541 16.652 20.097 32.201 52.61 42.828 1.442 4.884 3.915 9.675 7.307 14.307zm262.322-23.523c-1.561-3.062-4.653-7.548-6.316-8.871 2.766-5.068 8.738-15.606 9.911-18.461 1.174-2.855.861-7.071-3.11-8.366-2.051-.67-2.613-4.617-1.697-7.238.808-2.311 3.253-4.132 6.047-3.301 7.855 2.338 12.013 13.513 6.751 23.672-4.289 8.282-9.947 19.439-11.586 22.565zm-268.954-12.629c-20.052-5.888-32.61-14.632-33.245-25.06-.56-9.2 8.248-18.272 23.504-26.032l-.057 1.263c-9.277 5.262-14.416 10.999-14.066 16.743.511 8.395 12.655 15.296 32.074 19.78-3.687 4.155-6.464 8.606-8.21 13.306zm261.271-26.207c1.426-3.345 10.632-26.902 11.872-29.498 1.564-3.274 3.194-3.813 5.721-5.223 2.527-1.409 4.072-3.852 3.609-6.506-.29-1.662-1.683-3.824-4.217-3.519-1.789.216-10.419 2.149-13.923 12.062-3.505 9.913-9.105 22.841-10.811 27.051-2.511 6.199-3.925 15.495 3.94 22.256 3.781 1.111 4.939-.481 5.885-1.828 1.669-2.375.41-6.043-1.032-7.92-1.443-1.877-2.137-4.309-1.044-6.875zm-248.646-33.747c-4.232.272-12.393 5.095-12.965 16.565-.199 4.007 0 17.54 0 17.54s7.936 2.117 9.622 2.436c-.244-5.972-.54-16.436-.477-19.001.032-1.307.634-3.13 1.91-4.385 1.23-1.21 3.094-1.9 3.821-2.436 4.088-3.015 2.145-10.749-1.911-10.719zm7.775-27.771 10.851-2.437c3.326 2.408 4.035 9.619 3.343 15.591-.692 5.973-2.635 27.951-3.343 31.182-.708 3.232-2.505 12.34-12.895 14.617-2.039-.14-3.59-1.518-3.827-5.419s4.195-5.658 5.738-7.249c1.542-1.591 2.128-3.198 2.388-5.359.259-2.162 2.758-29.231 2.865-31.182s-1.046-5.452-4.298-5.847c-.157-.806-.822-3.897-.822-3.897zm256.695 50.974c1.759.746 5.697 3.033 7.357 6.199 1.013-2.689 4.67-10.921 4.67-10.921-3.12 1.392-6.752 1.456-10.16.568-.11.46-1.774 3.88-1.867 4.154zm19.071-50.633 8.902 2.755s-4.278 19.23-6.36 25.959c-2.19 7.074-9.589 13.565-16.301 12.931-4.935-.467-4.946-6.204-3.908-8.378 1.024-2.146 3.716-3.342 5.983-3.115 2.268.228 4.665-1.781 5.719-5.389 1.053-3.608 5.965-24.763 5.965-24.763zm-51.019 16.07-6.864-.039-1.547 6.308 5.75.033c.837.005 1.15.44.937 1.305l-.649 2.649c-.213.865-.737 1.295-1.575 1.29l-5.749-.032-2.511 10.237c-.212.865-.743 1.295-1.592 1.29l-2.6-.015c-.849-.005-1.168-.44-.956-1.305l5.402-22.024c.335-1.37 1.101-2.542 2.297-3.515 1.195-.974 2.471-1.457 3.827-1.449l7.112.04c.849.005 1.168.44.955 1.305l-.649 2.65c-.21.853-.739 1.277-1.588 1.272zm-27.928 22.96-6.564-.037c-1.344-.008-2.378-.501-3.1-1.48-.723-.979-.916-2.153-.58-3.523l5.406-22.042c.212-.865.743-1.295 1.592-1.291l2.6.015c.849.005 1.168.44.956 1.305l-5.344 21.79 6.315.036c.838.005 1.15.44.938 1.305l-.645 2.632c-.212.865-.737 1.295-1.574 1.29zm-25.61-.146-5.856-.034c-1.368-.008-2.438-.531-3.211-1.571-.773-1.039-.988-2.255-.646-3.649l4.393-17.915c.339-1.382 1.153-2.592 2.441-3.632 1.288-1.039 2.611-1.555 3.967-1.547l5.838.033c1.356.008 2.428.537 3.216 1.589.787 1.051 1.01 2.274.668 3.667l-4.385 17.879c-.342 1.394-1.162 2.608-2.46 3.641-1.299 1.033-2.621 1.546-3.965 1.539zm-25.15-.144-5.537-.032c-1.357-.008-2.424-.531-3.203-1.571-.778-1.039-.997-2.255-.655-3.649l4.389-17.897c.339-1.382 1.159-2.596 2.461-3.641s2.631-1.564 3.987-1.556l5.502.031c1.356.008 2.427.54 3.213 1.598.786 1.057 1.01 2.277.671 3.658l-.221.902c-.21.853-.733 1.277-1.57 1.272l-2.601-.015c-.849-.005-1.169-.434-.96-1.287l.221-.901-5.555-.032-4.38 17.861 5.555.032 1.547-6.308-2.247-.013c-.837-.005-1.15-.44-.937-1.305l.649-2.649c.212-.865.737-1.295 1.575-1.291l6.121.035c.837.005 1.15.44.937 1.305l-2.515 10.255c-.344 1.406-1.166 2.626-2.465 3.659-1.298 1.034-2.626 1.546-3.982 1.539zm-36.714-1.438c-1.108.812-2.276 1.214-3.502 1.207l-5.467-.031c-1.356-.008-2.423-.534-3.2-1.58-.777-1.045-.994-2.264-.653-3.658l4.389-17.897c.339-1.382 1.156-2.592 2.45-3.632 1.294-1.039 2.62-1.555 3.976-1.547l5.431.031c1.356.008 2.433.543 3.229 1.607.796 1.063 1.025 2.286.686 3.667l-.204.829c-.209.853-.738 1.278-1.587 1.273l-2.601-.015c-.837-.005-1.151-.434-.942-1.287l.208-.847-5.52-.032-4.38 17.861 5.52.032.243-.991c.212-.866.737-1.296 1.574-1.291l2.601.015c.849.005 1.167.44.955 1.305l-.243.991c-.371 1.514-1.359 2.844-2.963 3.99zm-28.228 1.066-5.165-.03c-1.368-.008-2.441-.534-3.218-1.579-.777-1.046-.993-2.271-.649-3.677l.244-.991c.212-.865.737-1.296 1.574-1.291l2.6.015c.85.005 1.168.44.956 1.305l-.243.991 5.183.03 1.547-6.308-5.165-.03c-1.369-.008-2.44-.537-3.216-1.588-.776-1.052-.993-2.274-.651-3.668l1.552-6.326c.339-1.382 1.153-2.595 2.443-3.641 1.29-1.045 2.618-1.564 3.987-1.556l5.165.029c1.357.008 2.423.538 3.198 1.589.776 1.051.994 2.268.655 3.649l-.212.866c-.209.853-.732 1.277-1.57 1.272l-2.6-.015c-.85-.005-1.169-.434-.96-1.287l.207-.847-5.183-.03-1.547 6.308 5.183.03c1.357.008 2.423.537 3.198 1.589.776 1.051.994 2.267.655 3.649l-1.56 6.362c-.345 1.406-1.16 2.623-2.445 3.65-1.285 1.028-2.606 1.537-3.963 1.53zm-20.585-.118-2.601-.015c-.849-.005-1.168-.44-.955-1.305l6.307-25.719c.212-.865.743-1.295 1.592-1.29l2.601.014c.849.005 1.167.44.955 1.305l-6.307 25.719c-.212.866-.743 1.296-1.592 1.291zm-7.215-23.144-4.372 17.825c-.344 1.406-1.17 2.629-2.476 3.668s-2.631 1.555-3.976 1.548l-9.517-.055c-.849-.005-1.168-.44-.956-1.305l6.308-25.719c.212-.865.743-1.295 1.592-1.29l9.5.054c1.356.008 2.429.543 3.22 1.607.79 1.063 1.016 2.286.677 3.667zm119.174 18.551 4.38-17.861-5.856-.034-4.38 17.861zm-128.68-.737 4.38-17.861-5.679-.032-4.38 17.861zm-47.765-27.415c-.871-2.311-.478-4.872-.478-4.872-3.219.85-9.802 2.34-9.802 2.34-.025 3.136.267 8.744 4.549 13.738 1.665 1.943 3.341 2.775 5.731 2.436 2.759-.39 4.455-3.672 3.821-6.334-.846-3.547-2.461-3.697-3.821-7.308zm259.177-10.821 10.402 3.355s2.684 3.572.499 7.48c-1.528 2.733-5.017 3.444-7.001 1.15s-4.252-6.966-3.9-11.985zm-235.206-.985c74.497-16.29 155.003-15.845 222.551-2.436.008 1.111.281 4.326 1.91 5.847-68.625-14.289-169.025-11.347-222.165 6.934-.002-4.529-1.648-8.694-2.296-10.345zm-42.64-9.504c-2.96.774-5.922 1.571-8.881 2.389-2.176.601-3.918.348-5.227-.768-1.309-1.112-1.731-2.731-1.264-4.871l5.991-27.46c.462-2.118 1.708-4.227 3.733-6.319 2.026-2.091 4.126-3.441 6.302-4.041 2.942-.812 5.883-1.603 8.824-2.372 2.173-.57 3.923-.255 5.243.936 1.323 1.192 1.753 2.85 1.29 4.97l-.301 1.383c-.286 1.31-1.101 2.13-2.443 2.468-1.391.35-2.781.703-4.17 1.062-1.361.352-1.9-.121-1.614-1.432l.302-1.383c-2.969.776-5.939 1.575-8.908 2.393l-5.979 27.404c2.97-.82 5.939-1.617 8.908-2.395l2.111-9.676c-1.201.313-2.403.63-3.602.954-1.344.359-1.871-.123-1.582-1.45l.888-4.066c.289-1.327 1.106-2.174 2.45-2.533 3.273-.876 6.544-1.725 9.815-2.547 1.341-.336 1.869.161 1.579 1.488l-3.433 15.734c-.471 2.157-1.716 4.239-3.74 6.258-2.019 2.013-4.12 3.307-6.292 3.874zm330.846-31.117c-1.788-.586-3.58-1.164-5.375-1.73l-7.294 33.431c-.29 1.329-1.034 1.805-2.232 1.431-1.224-.382-2.451-.755-3.678-1.128-1.205-.363-1.661-1.206-1.371-2.535l7.294-33.431c-1.809-.538-3.62-1.068-5.435-1.587-1.211-.345-1.675-1.169-1.39-2.477l.887-4.066c.29-1.326 1.042-1.821 2.253-1.477 6.076 1.738 12.108 3.586 18.091 5.55 1.19.392 1.64 1.255 1.35 2.582l-.887 4.066c-.285 1.308-1.024 1.761-2.213 1.371zm-35.084 27.815c-1.247-.33-2.494-.653-3.744-.976-1.22-.311-1.69-1.131-1.4-2.458l8.61-39.462c.289-1.325 1.048-1.834 2.269-1.523 1.251.322 2.496.647 3.743.977 1.219.321 1.684 1.151 1.395 2.476l-8.61 39.46c-.292 1.329-1.043 1.827-2.263 1.506zm-257.204-5.495c-1.48.296-2.961.598-4.441.905-.908.19-1.437-.104-1.592-.882-.975-5.018-1.952-10.024-2.93-15.019-.812.18-1.622.361-2.435.543l-3.426 15.704c-.291 1.331-1.117 2.145-2.477 2.456-1.388.317-2.775.638-4.165.966-1.36.319-1.897-.182-1.607-1.511l8.609-39.46c.29-1.326 1.116-2.153 2.477-2.474 4.828-1.135 9.654-2.211 14.477-3.231 2.17-.459 3.918-.048 5.244 1.224 1.327 1.275 1.758 2.984 1.291 5.124l-2.1 9.623c-.369 1.694-1.244 3.34-2.62 4.94-1.377 1.598-2.91 2.844-4.6 3.739.928 4.744 1.855 9.502 2.782 14.267.117.628-.085 1.26-.602 1.89-.54.653-1.166 1.052-1.885 1.196zm15.23-2.781c-1.382.244-2.767.493-4.152.747-1.355.25-1.891-.286-1.601-1.615l8.61-39.46c.29-1.326 1.115-2.119 2.47-2.367 1.384-.255 2.77-.503 4.152-.747 1.355-.238 1.89.309 1.6 1.635l-8.609 39.46c-.29 1.329-1.115 2.109-2.47 2.347zm214.183-14.181c-2.538-.486-5.079-.955-7.63-1.404l-2.781 12.747c-.29 1.329-1.052 1.881-2.292 1.667-1.287-.222-2.573-.439-3.862-.651-1.261-.209-1.749-.973-1.459-2.301l8.61-39.46c.289-1.327 1.067-1.89 2.328-1.682 4.477.739 8.935 1.534 13.374 2.387 1.978.382 3.563 1.535 4.751 3.463 1.187 1.927 1.549 3.964 1.082 6.102l-2.751 12.609c-.471 2.157-1.649 3.874-3.54 5.167-1.892 1.291-3.834 1.742-5.83 1.356zm-184.847-4.422c-2.738.373-5.477.765-8.219 1.176l-2.782 12.747c-.289 1.329-1.1 2.092-2.433 2.297-1.382.212-2.762.427-4.143.648-1.354.215-1.886-.338-1.596-1.664l8.609-39.46c.29-1.327 1.112-2.103 2.466-2.32 4.803-.768 9.598-1.479 14.388-2.13 2.137-.292 3.864.265 5.178 1.667s1.739 3.175 1.271 5.315l-2.75 12.607c-.471 2.159-1.713 4.139-3.731 5.954-2.016 1.817-4.102 2.868-6.258 3.163zm156.726 14.794c-1.294-.188-2.593-.374-3.892-.553-1.272-.175-1.765-.924-1.475-2.253l8.609-39.46c.29-1.327 1.072-1.905 2.345-1.73 1.298.18 2.597.366 3.891.553 1.271.186 1.759.945 1.47 2.272l-8.61 39.46c-.291 1.327-1.068 1.896-2.338 1.711zm-13.856-1.837c-1.394-.165-2.79-.325-4.188-.48-.854-.096-1.351-.582-1.488-1.466-.855-5.698-1.715-11.38-2.577-17.055-.769-.073-1.538-.146-2.308-.219l-3.427 15.707c-.29 1.329-1.08 1.934-2.368 1.819-1.32-.117-2.639-.229-3.959-.336-1.292-.104-1.795-.817-1.505-2.146l8.61-39.46c.289-1.325 1.081-1.94 2.374-1.838 4.589.373 9.162.801 13.72 1.289 2.051.217 3.69 1.231 4.92 3.029 1.231 1.799 1.612 3.77 1.145 5.91l-2.099 9.622c-.37 1.698-1.21 3.173-2.526 4.435-1.316 1.264-2.774 2.097-4.378 2.501.812 5.389 1.622 10.786 2.43 16.195.1.712-.097 1.323-.592 1.83-.513.526-1.109.745-1.784.663zm-113.136-1.38c-1.368.113-2.734.227-4.104.348-1.342.121-1.869-.481-1.579-1.81l8.61-39.46c.29-1.327 1.106-2.053 2.447-2.172 1.37-.121 2.737-.238 4.105-.348 1.339-.111 1.863.502 1.574 1.829l-8.61 39.46c-.289 1.327-1.104 2.043-2.443 2.153zm37.511-37.619c-1.991.061-3.986.132-5.98.217l-7.294 33.431c-.29 1.329-1.101 2.018-2.431 2.078-1.358.058-2.718.125-4.079.194-1.332.069-1.855-.559-1.565-1.888l7.294-33.431c-2 .111-4.001.23-6.007.359-1.336.088-1.862-.519-1.576-1.827l.887-4.066c.289-1.327 1.103-2.039 2.439-2.126 6.708-.434 13.395-.753 20.061-.96 1.328-.039 1.845.607 1.556 1.932l-.887 4.066c-.285 1.308-1.09 1.98-2.418 2.021zm15.982 1.267-.178.192s2.707-1.827 5.029-1.805c2.474.06 4.864 1.352 6.294 3.426l1.745 2.568-4.379 3.099c-1.038-1.526-1.819-3.374-3.414-3.627-.569-.09-1.165.033-1.662.334-.567.615-1.737 2.16-.784 3.611 1.109 1.644 2.216 3.291 3.326 4.934l13.161-9.36c.671-.478 1.5-.664 2.306-.517.805.147 1.521.614 1.989 1.298v.001c.468.685.65 1.531.507 2.353-.144.822-.602 1.551-1.273 2.029l-13.169 9.366c.927 1.346 1.862 2.688 2.807 4.021.807 1.106 2.487 1.411 3.613.62 0 0 .736-.529 1.004-1.366.239-.745.131-1.589-.276-2.259l-1.107-1.796 4.512-2.895c1.296 2.102 2.48 4.334 2.311 6.703-.313 4.392-4.681 8.073-9.052 7.443-2.123-.306-4.092-1.525-5.361-3.315-.938-1.351-1.871-2.705-2.8-4.063l-3.979 2.831c-.671.477-1.5.663-2.306.516-.805-.146-1.521-.613-1.989-1.298v-.001c-.468-.685-.65-1.531-.507-2.353.144-.821.602-1.551 1.273-2.029l3.986-2.835c-1.11-1.633-2.22-3.266-3.334-4.896-2.259-3.349-1.598-8.354 1.7-10.925l.007-.005c.323-.245.047-.036 0 0zm-129.109 21.842 2.112-9.68c-2.774.589-5.55 1.194-8.326 1.815l-2.112 9.68c2.776-.624 5.552-1.229 8.326-1.815zm232.557-.647 2.763-12.666c-2.562-.494-5.13-.965-7.708-1.42l-2.763 12.665c2.578.455 5.145.928 7.708 1.421zm-184.841-4.45 2.763-12.665c-2.765.375-5.534.772-8.303 1.187l-2.764 12.665c2.77-.415 5.539-.809 8.304-1.187zm140.113-5.495 2.112-9.679c-2.622-.28-5.25-.541-7.882-.785l-2.113 9.682c2.633.24 5.261.501 7.883.782zm-55.285-7.063c.162-.176.275-.276.275-.276l-.394.353c.039-.027.079-.053.119-.077zm-132.034-15.19c8.938-5.124 18.48-9.216 28.203-12.686 34.839-12.434 71.816-17.217 108.883-17.339.447-.001.893-.001 1.34-.001 21.89.045 43.748 1.891 65.196 6.17 23.115 4.612 46.098 11.926 65.993 24.292-42.927-11.211-87.283-16.489-131.381-16.576-2.46-.002-4.925.01-7.389.039-43.793.514-87.718 6.1-130.845 16.101z" fill="#fff" fill-rule="nonzero"/></svg>